<svg xmlns="http://www.w3.org/2000/svg" version="1.1" xmlns:xlink="http://www.w3.org/1999/xlink" width="200" height="200"><svg xmlns="http://www.w3.org/2000/svg" version="1.1" xmlns:xlink="http://www.w3.org/1999/xlink" viewBox="0 0 200 200"><rect width="200" height="200" fill="url('#gradient')"></rect><defs><linearGradient id="SvgjsLinearGradient1001" gradientTransform="rotate(45 0.5 0.5)"><stop offset="0%" stop-color="#472027"></stop><stop offset="100%" stop-color="#192025"></stop></linearGradient></defs><g><g fill="#ffffff" transform="matrix(5.903325942350333,0,0,5.903325942350333,15.668878533147662,142.56489429389293)" stroke="#c06a3e" stroke-width="0.2"><path d="M9.89-8.57L9.89-6.03L4.50-6.03L4.50-2.64L10.87-2.64L10.87 0L1.07 0L1.07-14.22L10.89-14.22L10.89-11.57L4.50-11.57L4.50-8.57L9.89-8.57ZM21.98-2.54L21.98 0L12.06 0L12.06-2.15L16.63-6.95Q18.32-8.88 18.32-10.01L18.32-10.01Q18.32-10.93 17.92-11.41Q17.52-11.88 16.76-11.88L16.76-11.88Q16.01-11.88 15.54-11.25Q15.07-10.61 15.07-9.65L15.07-9.65L11.77-9.65Q11.77-10.96 12.42-12.07Q13.08-13.17 14.24-13.80Q15.40-14.42 16.84-14.42L16.84-14.42Q19.14-14.42 20.39-13.36Q21.63-12.29 21.63-10.30L21.63-10.30Q21.63-9.46 21.32-8.67Q21.01-7.87 20.35-7.00Q19.69-6.12 18.22-4.66L18.22-4.66L16.39-2.54L21.98-2.54ZM27.50-14.22L27.50 0L24.08 0L24.08-14.22L27.50-14.22Z"></path></g></g></svg><style>@media (prefers-color-scheme: light) { :root { filter: none; } }
@media (prefers-color-scheme: dark) { :root { filter: none; } }
</style></svg>